<svg id="Capa_1" data-name="Capa 1" xmlns="http://www.w3.org/2000/svg" viewBox="0 0 256 256"><polyline points="86.42 147.44 179.51 147.44 213 89.25 77.11 89.25" style="fill:none;stroke:#fff;stroke-miterlimit:10;stroke-width:6.8px"/><polyline points="43 60.17 72.46 60.17 89.56 167.07 168.21 167.07" style="fill:none;stroke:#fff;stroke-miterlimit:10;stroke-width:6.8px"/><line x1="159.58" y1="147.44" x2="193.07" y2="89.26" style="fill:none;stroke:#fff;stroke-miterlimit:10;stroke-width:9.066666666666666px"/><line x1="139.47" y1="147.44" x2="172.96" y2="89.26" style="fill:none;stroke:#fff;stroke-miterlimit:10;stroke-width:9.066666666666666px"/><line x1="119.37" y1="147.44" x2="152.86" y2="89.26" style="fill:none;stroke:#fff;stroke-miterlimit:10;stroke-width:9.066666666666666px"/><path d="M158.43,181.1a4,4,0,1,1-4,4,4,4,0,0,1,4-4m0-6.8a10.77,10.77,0,1,0,10.77,10.77,10.77,10.77,0,0,0-10.77-10.77Z" style="fill:#fff"/><path d="M89.56,181.1a4,4,0,1,1-4,4,4,4,0,0,1,4-4m0-6.8a10.77,10.77,0,1,0,10.77,10.77A10.77,10.77,0,0,0,89.56,174.3Z" style="fill:#fff"/></svg>