<svg id="Capa_1" data-name="Capa 1" xmlns="http://www.w3.org/2000/svg" viewBox="0 0 256 256"><path d="M53,164.65V91.44c.09-.53.15-1.06.28-1.57,1-3.9,1.5-8.05,3.16-11.66C63.91,62,76.75,53.4,94.59,53.15c22.25-.32,44.52-.1,66.78-.07A40,40,0,0,1,185,60.42c11.92,8.5,17.9,20.2,17.93,34.84q.09,32.79,0,65.6a40.32,40.32,0,0,1-.76,8.43c-3.75,17-14.09,27.84-30.84,32.5-2.2.61-4.5.83-6.74,1.23H91.37c-1.53-.24-3.08-.4-4.59-.74-17-3.83-27.89-14.11-32.55-30.9C53.62,169.19,53.4,166.9,53,164.65Zm13.3-36.6q0,16.24,0,32.5a29.7,29.7,0,0,0,1.51,10.07c4.25,11.92,14.52,19.09,27.49,19.1,21.77,0,43.54.07,65.31-.06a32.13,32.13,0,0,0,9.9-1.51c12-4,19.15-14.42,19.17-27.38,0-21.82.06-43.63-.06-65.45a31.88,31.88,0,0,0-1.5-9.76c-4-11.93-14.36-19.15-27.22-19.18q-32.88-.07-65.75,0c-9.83,0-17.78,3.88-23.62,11.85A28.09,28.09,0,0,0,66.29,95.4Q66.32,111.72,66.3,128.05Z" style="fill:#fff"/><path d="M166.64,128.07A38.65,38.65,0,1,1,128,89.4,38.81,38.81,0,0,1,166.64,128.07ZM128,102.73a25.32,25.32,0,1,0,25.27,25.36A25.36,25.36,0,0,0,128,102.73Z" style="fill:#fff"/><path d="M168.26,78.17a9.72,9.72,0,1,1-9.76,9.64A9.79,9.79,0,0,1,168.26,78.17Z" style="fill:#fff"/></svg>