<svg id="Capa_1" data-name="Capa 1" xmlns="http://www.w3.org/2000/svg" viewBox="0 0 256 256"><path d="M211,86.55c0-6.14-2.41-8.55-8.55-8.55h-149C47.38,78,45,80.41,45,86.55V189.63c0,5.91,2.47,8.36,8.45,8.37H202.58c6,0,8.45-2.46,8.45-8.37ZM185.82,94.4c-19.53,17-38.52,33.62-57.82,50.45C108.7,128,89.71,111.43,70.18,94.4Zm-127,8.1,42.24,36.83L58.82,176.92Zm12.4,81.55c13.64-12.13,26.77-23.82,40.12-35.71,4.24,3.67,8.18,7.17,12.21,10.56a6.53,6.53,0,0,0,8.9,0c4-3.39,8-6.89,12.21-10.56,13.35,11.89,26.48,23.58,40.12,35.71Zm126-7.13-42.24-37.59,42.24-36.83Z" style="fill:#fff"/></svg>