<svg id="Capa_1" data-name="Capa 1" xmlns="http://www.w3.org/2000/svg" viewBox="0 0 256 256"><path d="M185.08,90.58a53.94,53.94,0,0,0-8.63-28.75,55.63,55.63,0,0,0-19-18.39,59.94,59.94,0,0,0-29.38-7.94h-.14a59.94,59.94,0,0,0-29.38,7.94,55.63,55.63,0,0,0-19,18.39A54.93,54.93,0,0,0,73.18,107c1.43,4.75,3.72,8.71,5.75,12.94,4,8.27,9,15.84,14,23.42,14.79,22.4,28.82,45.25,35,76.43v.7c0-.12,0-.23.07-.35,0,.12.05.23.07.35v-.7c6.21-31.18,20.24-54,35-76.43,5-7.58,10-15.15,14-23.42,2-4.23,4.32-8.19,5.75-12.94A53.5,53.5,0,0,0,185.08,90.58ZM128,110.68a20,20,0,1,1,19.95-20A20,20,0,0,1,128,110.68Z" style="fill:#fff"/></svg>