<svg xmlns="http://www.w3.org/2000/svg" viewBox="0 0 1920 480"><path d="M145.83,108.24l56.11,2.94c-.3,3.53-3.82,7.37-10,8.22v39.08h51.41l7.89-3.21,39.07,15.27a12.7,12.7,0,0,1-5.58,5.58C265.64,283.63,226,338.85,134.33,371.76c-6.18-10.29-20.87-28.2-30.55-38.19,79-26.15,115.44-70.21,125.44-132.79H103.46v57.87H60V158.48h85.83Z" style="fill:#a00505"/><path d="M447.5,155.54c-.29,3.52-2.94,6.45-7.93,7.05-1.17,86.67-10,153-47.9,208.58C381.4,364.41,364,354.43,351.43,348c37-44.65,42.3-122.21,41.71-195.65Zm75.21,144.83c35-20.86,55.26-59,66.69-101.64,9.1,7.63,29.66,19.39,40.24,24.67C608.46,284.5,575,327.1,513,358.79a24.77,24.77,0,0,1-7.64,7.94L471.87,328l5.28-7V115.55l54.65,2.65c-.59,3.51-2.94,6.75-9.11,7.93Z" style="fill:#a00505"/><path d="M872,279.22c-22-13.22-59-31.14-86.67-42.31v132.8H737.45V110l57.28,2.94c-.29,3.52-2.93,6.75-9.4,7.93V201.9l8.52-11.74c31.43,11.16,74.91,30,103.15,44.94Z" style="fill:#a00505"/><path d="M1206,207.25a13.2,13.2,0,0,1-6.45,5.29c-27.63,90.18-70.81,133.07-159.53,158.63-5-10.28-18.5-26.15-27.31-35.26,70.79-16.74,119-56.69,131-100.46H973.67V193.73h189.18l5-3.23Zm-35.25-47H1002.46V119.4h168.33Z" style="fill:#a00505"/><path d="M1538.31,166.71c-1.18,2.64-3.53,4.4-7,5.58-23.21,34.07-66.11,77.56-103.71,106.63,14.69,11.75,36.43,30,48.18,42.89l-39.66,34.67c-33.49-37.9-82.89-77.85-124.26-101.64L1343,222.5c16.15,8.52,33.78,20.26,49.35,30.85,26.44-20.27,52.29-47,67.24-66.11H1282.13V145h213.29l5.87-3.23Z" style="fill:#a00505"/><path d="M1634.68,127.64c29.08,8.52,64,24.39,85.48,37.9l-23.5,40.83c-20.85-13.81-55.81-30-83.14-40Zm-14.11,196.25c96.66-29.38,163.94-86.67,197.42-167.17,13.22,10.58,28.79,19.1,42,26.44-36.43,79.91-106,142.76-202.12,177.76a11.2,11.2,0,0,1-5.58,7.93Z" style="fill:#a00505"/><path d="M1379.57,145.4v-9.33q0-13.81-7.37-23.31t-20.91-9.47q-13.51,0-20.9,9.47T1323,136.07v75.2q19.55-17.45,43-17.44,37.61,0,56.25,26.17,16.57,22.86,16.58,63.46v64.68h-.3q-1.83,36.09-26,60.46T1353.14,433q-37.61,0-62-26.76-23.79-25.87-23.78-63.18V137.28q0-27.63,13.4-49.94t38-33.08A80.77,80.77,0,0,1,1353.14,47q37.3,0,62,27.07,23.76,25.88,23.76,63.17v8.12ZM1323,342.12q0,13.81,7,22.86,7.55,9.94,21.18,9.93t21.18-9.93q7.26-9,7.25-22.86V272.34a34.77,34.77,0,0,0-12.09-27.07q-5.74-5.11-16-5.12-14.82,0-22.38,11.73a39.44,39.44,0,0,0-6,21.36Z" style="fill:#d2d2d2"/><path d="M1566.36,374.91q39.11,0,39.1-36.36V316.31q0-58-60.79-58V209.61q32.79,0,48.43-18.32,14.43-16.53,14.44-46.28v-8.68q0-36.95-32.48-37-18.06,0-26.47,13.75-6.33,10.47-6.32,27.21v9.87h-55.65v-8.76q0-40.3,20.46-65.57Q1530.23,47,1572.35,47q40,0,64.07,27.07,21.66,24.38,21.66,60.79v15.95q0,35.2-21.06,60.79A88.09,88.09,0,0,1,1616,229.94q25.26,14.15,39.11,43,7.23,14.74,7.22,35.8v29.8q0,41.82-28.55,68.58Q1606.37,433,1567.87,433q-37.61,0-63.78-26.47t-26.16-63.47V333.7l54.14-4.21,1.2,13.23q1.2,14.14,10.08,23.16T1566.36,374.91Z" style="fill:#d2d2d2"/><g style="isolation:isolate"><text transform="translate(313.33 261.23)" style="isolation:isolate;font-size:192.78451538085938px;fill:#fff;font-family:OpenSans-BoldItalic, Open Sans;font-weight:700;font-style:italic">ULTRAMAN</text><text transform="translate(465.2 360.7)" style="isolation:isolate;font-size:82.89073181152344px;fill:#fff;font-family:OpenSans-BoldItalic, Open Sans;font-weight:700;font-style:italic">TIENDA DE LIBROS</text></g></svg>