<svg xmlns="http://www.w3.org/2000/svg" viewBox="0 0 256 256"><g id="u63-status"><path d="M198.36,65.24,213,50c12.57,9.51,16.21,53.16-22.54,91.19Z" style="fill:#cb2027"/><path d="M198.36,65.24l10.27-10.72c3.92,1.2,11.63,4.84,12.81,16.56,1.76,17.44-6.85,47.35-31,70.12Z" style="fill:#a00f0f"/><path d="M198.36,65.24,213,50c12.57,9.51,16.21,53.16-22.54,91.19Z" style="fill:none;stroke:#0a0a0a;stroke-miterlimit:10;stroke-width:0.7781685659673292px"/><path d="M104.64,183.72s49.07,16,93.66-30,.06-88.52.06-88.52c-6.73-3.32-15-7-22.71-8.35C150.7,52.67,113,73.78,103,100.42,83.07,153.68,104.64,183.72,104.64,183.72Z" style="fill:#d2d2d2"/><path d="M198.36,65.24s44.52,42.53-.06,88.52-93.66,30-93.66,30c54-12.53,130.76-46.24,93.72-118.48" style="fill:#bebebe"/><path d="M95.23,155.13c-1.67-13.72-.68-32.13,7.77-54.71,10-26.64,47.7-47.75,72.65-43.53C106.42,73.94,101.25,125.24,95.23,155.13Z" style="fill:#e6e6e6"/><path d="M132.17,139.32a14.61,14.61,0,0,0,5.25,10.3c4.85,4,14.73,9.81,26.17,6.65,15.95-4.41,34.4-30.6,30.56-38.37C188,105.37,130.71,114.4,132.17,139.32Z" style="fill:#f5dc0a"/><path d="M137.42,149.62a14.61,14.61,0,0,1-5.25-10.3c-.87-14.91,19.27-24.13,36.92-26.45C162.82,115.67,132.26,119.83,137.42,149.62Z" style="fill:#fff050"/><path d="M194.15,117.9c3.84,7.77-14.61,34-30.56,38.37-11.44,3.16-21.32-2.6-26.17-6.65C165.72,158.54,183.54,137.15,194.15,117.9Z" style="fill:#e1c800"/><path d="M132.17,139.32a14.61,14.61,0,0,0,5.25,10.3c4.85,4,14.73,9.81,26.17,6.65,15.95-4.41,34.4-30.6,30.56-38.37C188,105.37,130.71,114.4,132.17,139.32Z" style="fill:none;stroke:#0a0a0a;stroke-miterlimit:10;stroke-width:0.7781685659673292px"/><path d="M104.64,183.72s49.07,16,93.66-30,.06-88.52.06-88.52c-6.73-3.32-15-7-22.71-8.35C150.7,52.67,113,73.78,103,100.42,83.07,153.68,104.64,183.72,104.64,183.72Z" style="fill:none;stroke:#0a0a0a;stroke-linecap:round;stroke-linejoin:round;stroke-width:0.7781685659673292px"/><path d="M97.66,106.14c1.22-13.59,13.3-28.69,16.12-28.5,8.35.56,11.52,54-10.58,48.58C98.18,125,96.75,116.27,97.66,106.14Z" style="fill:#f5dc0a"/><path d="M101.67,125.55c-3.77-2.5-4.82-10.39-4-19.41,1.22-13.59,13.3-28.64,16.12-28.5s4.59,6,5.65,12.26C110.52,82.29,97.79,95.39,101.67,125.55Z" style="fill:#fff050"/><path d="M97.66,106.14c1.22-13.59,13.3-28.69,16.12-28.5,8.35.56,11.52,54-10.58,48.58C98.18,125,96.75,116.27,97.66,106.14Z" style="fill:none;stroke:#0a0a0a;stroke-miterlimit:10;stroke-width:0.7781685659673292px"/><path d="M123.36,128.13C137.75,67.46,183.38,28.05,213,50l-14.6,15.23c-11.63-2.61-32-9.28-62.6,40.9" style="fill:#d2d2d2"/><path d="M208.63,54.52,198.36,65.24c-11.63-2.61-32-9.28-62.6,40.9C163.66,57.66,187.09,48,208.63,54.52Z" style="fill:#bebebe"/><path d="M123.36,128.13a157.07,157.07,0,0,1,11.2-32.33,129,129,0,0,1,18.58-28.74,90.31,90.31,0,0,1,12.37-11.89,61.3,61.3,0,0,1,14.78-8.73,37.78,37.78,0,0,1,16.91-2.85,30.76,30.76,0,0,1,16,6.13l.32.25-.28.29-14.62,15.2-.12.13-.18,0a58.38,58.38,0,0,0-9.93-1.75,31.17,31.17,0,0,0-5,.06,32,32,0,0,0-4.94.89c-6.5,1.74-12.3,5.5-17.39,9.88a104.87,104.87,0,0,0-13.74,14.82,193,193,0,0,0-11.51,16.69,190.45,190.45,0,0,1,11.29-16.86,98.6,98.6,0,0,1,13.67-15c5.1-4.43,10.93-8.26,17.54-10.06a31.81,31.81,0,0,1,5-.93,32.3,32.3,0,0,1,5.11-.09,59.24,59.24,0,0,1,10,1.72l-.3.09L212.7,49.76l0,.54a30.09,30.09,0,0,0-15.6-5.94,36.9,36.9,0,0,0-16.59,2.73,60.94,60.94,0,0,0-14.66,8.57,90.26,90.26,0,0,0-12.34,11.76A128.71,128.71,0,0,0,134.92,96,159.23,159.23,0,0,0,123.36,128.13Z" style="fill:#0a0a0a"/><polygon points="181.78 171.24 208.53 144.75 198.4 139.45 212.84 140.94 219.07 145.42 187.72 171.34 181.78 171.24" style="fill:#a0a0a0;stroke:#0a0a0a;stroke-linecap:round;stroke-linejoin:round;stroke-width:0.7781685659673292px"/><polygon points="181.78 171.24 177.29 169.18 198.4 139.45 208.53 144.75 181.78 171.24" style="fill:#bebebe;stroke:#0a0a0a;stroke-linecap:round;stroke-linejoin:round;stroke-width:0.7781685659673292px"/><line x1="208.53" y1="144.75" x2="219.07" y2="145.42" style="fill:none;stroke:#0a0a0a;stroke-linecap:round;stroke-miterlimit:10;stroke-width:0.7781685659673292px"/><polyline points="76.61 188.18 191.66 188.18 233.06 116.27 65.1 116.27" style="fill:none;stroke:#0a0a0a;stroke-miterlimit:10;stroke-width:8.404652632617088px"/><polyline points="22.94 80.32 59.35 80.32 80.49 212.46 177.69 212.46" style="fill:none;stroke:#0a0a0a;stroke-miterlimit:10;stroke-width:8.404652632617088px"/><line x1="167.03" y1="188.18" x2="208.43" y2="116.27" style="fill:none;stroke:#0a0a0a;stroke-miterlimit:10;stroke-width:11.20620351015612px"/><line x1="142.18" y1="188.18" x2="183.58" y2="116.27" style="fill:none;stroke:#0a0a0a;stroke-miterlimit:10;stroke-width:11.20620351015612px"/><line x1="117.33" y1="188.18" x2="158.72" y2="116.27" style="fill:none;stroke:#0a0a0a;stroke-miterlimit:10;stroke-width:11.20620351015612px"/><path d="M165.61,229.79a4.91,4.91,0,1,1-4.9,4.9,4.91,4.91,0,0,1,4.9-4.9m0-8.4a13.31,13.31,0,1,0,13.31,13.3,13.3,13.3,0,0,0-13.31-13.3Z" style="fill:#0a0a0a"/><path d="M80.49,229.79a4.91,4.91,0,1,1-4.9,4.9,4.91,4.91,0,0,1,4.9-4.9m0-8.4a13.31,13.31,0,1,0,13.31,13.3,13.29,13.29,0,0,0-13.31-13.3Z" style="fill:#0a0a0a"/><line x1="52.46" y1="67.41" x2="111.87" y2="8" style="fill:none;stroke:#cb2027;stroke-miterlimit:10;stroke-width:8.988451207456281px"/><line x1="111.87" y1="67.41" x2="52.46" y2="8" style="fill:none;stroke:#cb2027;stroke-miterlimit:10;stroke-width:8.988451207456281px"/></g></svg>