<svg xmlns="http://www.w3.org/2000/svg" viewBox="0 0 256 256"><g id="u63-status"><path d="M170.24,40.12l17.44-27.46c21.9,10.57,40.65,75.46-6.41,144.71Z" style="fill:#cb2027"/><path d="M170.24,40.12,182.51,20.8c6.29.62,19.05,3.79,24.39,21.15,7.95,25.83,4,73.66-25.63,115.42Z" style="fill:#a00f0f"/><path d="M170.24,40.12l17.44-27.46c21.9,10.57,40.65,75.46-6.41,144.71Z" style="fill:none;stroke:#0a0a0a;stroke-miterlimit:10;stroke-width:1.2px"/><path d="M64.48,247.68S143.52,257,197,174,170.24,40.12,170.24,40.12c-11.19-3-24.83-6.11-36.88-5.74-39,1.19-89.64,44.55-96.63,87.85C22.75,208.8,64.48,247.68,64.48,247.68Z" style="fill:#d2d2d2"/><path d="M170.24,40.12S250.45,90.92,197,174s-132.5,73.7-132.5,73.7c77.85-35.33,183.66-109.57,105.76-207.56" style="fill:#bebebe"/><path d="M41.56,207.3c-6.67-20.23-10.76-48.36-4.83-85.07,7-43.3,57.64-86.66,96.63-87.85C33.86,81.16,41.61,160.29,41.56,207.3Z" style="fill:#e6e6e6"/><path d="M92.63,172.19a22.5,22.5,0,0,0,11.06,14c8.56,4.66,25.25,10.36,41.58,2.12C168.05,176.8,188,131.6,179.85,121,166.7,104,82.85,135,92.63,172.19Z" style="fill:#f5dc0a"/><path d="M103.69,186.18a22.5,22.5,0,0,1-11.06-14c-5.85-22.27,21.81-42.32,47.8-51.18C131.8,127.14,86.84,142.71,103.69,186.18Z" style="fill:#fff050"/><path d="M179.85,121c8.16,10.59-11.8,55.79-34.58,67.29-16.33,8.24-33,2.54-41.58-2.12C149.19,191.08,169.64,153.33,179.85,121Z" style="fill:#e1c800"/><path d="M92.63,172.19a22.5,22.5,0,0,0,11.06,14c8.56,4.66,25.25,10.36,41.58,2.12C168.05,176.8,188,131.6,179.85,121,166.7,104,82.85,135,92.63,172.19Z" style="fill:none;stroke:#0a0a0a;stroke-miterlimit:10;stroke-width:1.2px"/><path d="M64.48,247.68S143.52,257,197,174,170.24,40.12,170.24,40.12c-11.19-3-24.83-6.11-36.88-5.74-39,1.19-89.64,44.55-96.63,87.85C22.75,208.8,64.48,247.68,64.48,247.68Z" style="fill:none;stroke:#0a0a0a;stroke-linecap:round;stroke-linejoin:round;stroke-width:1.2px"/><path d="M30.38,132.5c-2.28-20.91,11.41-47.41,15.74-48,12.79-1.69,33.79,78.18-1.26,76.66C36.89,160.84,32.08,148.1,30.38,132.5Z" style="fill:#f5dc0a"/><path d="M42.34,160.63c-6.47-2.63-10.45-14.25-12-28.13-2.28-20.91,11.42-47.34,15.74-48s8.74,7.65,12.25,16.82C42.59,92.54,27.31,116.2,42.34,160.63Z" style="fill:#fff050"/><path d="M30.38,132.5c-2.28-20.91,11.41-47.41,15.74-48,12.79-1.69,33.79,78.18-1.26,76.66C36.89,160.84,32.08,148.1,30.38,132.5Z" style="fill:none;stroke:#0a0a0a;stroke-miterlimit:10;stroke-width:1.2px"/><path d="M75.91,158c3.35-96.08,60.4-169.52,111.77-145.29L170.24,40.12c-18.38-.42-51.19-4.33-82.24,80.82" style="fill:#d2d2d2"/><path d="M182.51,20.8,170.24,40.12c-18.38-.42-51.19-4.33-82.24,80.82C115.48,39.19,148,17.41,182.51,20.8Z" style="fill:#bebebe"/><path d="M75.91,158A243.46,243.46,0,0,1,83,105.67a199.52,199.52,0,0,1,19.31-49.13,139.72,139.72,0,0,1,15.13-21.72A94.85,94.85,0,0,1,137.2,17.15,66,66,0,0,1,149,11a51.88,51.88,0,0,1,12.91-3.28,45.82,45.82,0,0,1,13.33.35,50.12,50.12,0,0,1,12.69,4.06l.59.27-.35.55L170.69,40.41l-.16.26h-.31a91.35,91.35,0,0,0-15.53.38,49.87,49.87,0,0,0-7.56,1.62,50.43,50.43,0,0,0-7.19,2.84c-9.3,4.58-16.93,12-23.31,20.15a161.21,161.21,0,0,0-16.3,26.57A292.3,292.3,0,0,0,88,120.94,294.4,294.4,0,0,1,99.94,92,155.23,155.23,0,0,1,116,65.2a88,88,0,0,1,10.57-11.6,57.45,57.45,0,0,1,12.9-9,48.23,48.23,0,0,1,7.32-2.94A52.34,52.34,0,0,1,154.55,40a92.67,92.67,0,0,1,15.7-.42l-.47.25L187.2,12.36l.24.82A49.2,49.2,0,0,0,175,9.25a45.61,45.61,0,0,0-13-.33,51.22,51.22,0,0,0-12.63,3.18,65.8,65.8,0,0,0-11.61,6,94.06,94.06,0,0,0-19.53,17.42A138.72,138.72,0,0,0,103.21,57a198.4,198.4,0,0,0-19.56,48.79A245.24,245.24,0,0,0,75.91,158Z" style="fill:#0a0a0a"/><polygon points="177.32 205.41 209.73 157.25 192.8 152.31 215.08 150.19 225.87 155.07 186.33 203.76 177.32 205.41" style="fill:#a0a0a0;stroke:#0a0a0a;stroke-linecap:round;stroke-linejoin:round;stroke-width:1.2px"/><polygon points="177.32 205.41 169.9 203.67 192.8 152.31 209.73 157.25 177.32 205.41" style="fill:#bebebe;stroke:#0a0a0a;stroke-linecap:round;stroke-linejoin:round;stroke-width:1.2px"/><line x1="209.73" y1="157.24" x2="225.87" y2="155.07" style="fill:none;stroke:#0a0a0a;stroke-linecap:round;stroke-miterlimit:10;stroke-width:1.2px"/></g></svg>