<svg xmlns="http://www.w3.org/2000/svg" viewBox="0 0 256 256"><g id="u63-status"><path d="M176.2,40.12l17.44-27.46c21.9,10.57,40.65,75.46-6.41,144.71Z" style="fill:#cb2027"/><path d="M176.2,40.12,188.47,20.8c6.29.62,19.05,3.79,24.39,21.15,7.95,25.83,4,73.66-25.63,115.42Z" style="fill:#a00f0f"/><path d="M176.2,40.12l17.44-27.46c21.9,10.57,40.65,75.46-6.41,144.71Z" style="fill:none;stroke:#0a0a0a;stroke-miterlimit:10;stroke-width:1.2px"/><path d="M70.44,247.68S149.48,257,203,174,176.2,40.12,176.2,40.12c-11.19-3-24.83-6.11-36.88-5.74-39,1.19-89.64,44.55-96.63,87.85C28.71,208.8,70.44,247.68,70.44,247.68Z" style="fill:#d2d2d2"/><path d="M176.2,40.12S256.41,90.92,203,174s-132.51,73.7-132.51,73.7C148.29,212.35,254.1,138.11,176.2,40.12" style="fill:#bebebe"/><path d="M47.52,207.3c-6.67-20.23-10.76-48.36-4.83-85.07,7-43.3,57.64-86.66,96.63-87.85C39.82,81.16,47.57,160.29,47.52,207.3Z" style="fill:#e6e6e6"/><path d="M70.44,247.68S149.48,257,203,174,176.2,40.12,176.2,40.12c-11.19-3-24.83-6.11-36.88-5.74-39,1.19-89.64,44.55-96.63,87.85C28.71,208.8,70.44,247.68,70.44,247.68Z" style="fill:none;stroke:#0a0a0a;stroke-linecap:round;stroke-linejoin:round;stroke-width:1.2px"/><path d="M81.87,158c3.35-96.08,60.4-169.52,111.77-145.29L176.2,40.12C157.82,39.7,125,35.79,94,120.94" style="fill:#d2d2d2"/><path d="M188.47,20.8,176.2,40.12C157.82,39.7,125,35.79,94,120.94,121.44,39.19,153.91,17.41,188.47,20.8Z" style="fill:#bebebe"/><path d="M81.87,158A243.46,243.46,0,0,1,89,105.67,199.52,199.52,0,0,1,108.3,56.54a139.72,139.72,0,0,1,15.13-21.72,94.85,94.85,0,0,1,19.73-17.67A66,66,0,0,1,155,11a51.88,51.88,0,0,1,12.91-3.28,45.82,45.82,0,0,1,13.33.35,50.12,50.12,0,0,1,12.69,4.06l.59.27-.35.55L176.65,40.41l-.16.26h-.31a91.35,91.35,0,0,0-15.53.38,49.87,49.87,0,0,0-7.56,1.62,50.43,50.43,0,0,0-7.19,2.84c-9.3,4.58-16.93,12-23.31,20.15a161.21,161.21,0,0,0-16.3,26.57A292.3,292.3,0,0,0,94,120.94,294.4,294.4,0,0,1,105.9,92,155.23,155.23,0,0,1,122,65.2a88,88,0,0,1,10.57-11.6,57.45,57.45,0,0,1,12.9-9,48.23,48.23,0,0,1,7.32-2.94A52.34,52.34,0,0,1,160.51,40a92.67,92.67,0,0,1,15.7-.42l-.47.25,17.42-27.47.24.82A49.2,49.2,0,0,0,181,9.25a45.61,45.61,0,0,0-13-.33,51.22,51.22,0,0,0-12.63,3.18,65.8,65.8,0,0,0-11.61,6,94.06,94.06,0,0,0-19.53,17.42A138.72,138.72,0,0,0,109.17,57a198.4,198.4,0,0,0-19.56,48.79A245.24,245.24,0,0,0,81.87,158Z" style="fill:#0a0a0a"/><polygon points="183.28 205.41 215.69 157.25 198.76 152.31 221.04 150.19 231.83 155.07 192.29 203.76 183.28 205.41" style="fill:#a0a0a0;stroke:#0a0a0a;stroke-linecap:round;stroke-linejoin:round;stroke-width:1.2px"/><polygon points="183.28 205.41 175.86 203.67 198.76 152.31 215.69 157.25 183.28 205.41" style="fill:#bebebe;stroke:#0a0a0a;stroke-linecap:round;stroke-linejoin:round;stroke-width:1.2px"/><line x1="215.69" y1="157.24" x2="231.83" y2="155.07" style="fill:none;stroke:#0a0a0a;stroke-linecap:round;stroke-miterlimit:10;stroke-width:1.2px"/><polygon points="168.2 105.93 169.54 145.75 192.16 178.56 152.33 179.91 119.52 202.53 118.18 162.7 95.56 129.89 135.39 128.55 168.2 105.93" style="fill:#f5dc0a"/><polygon points="168.76 178.9 192.16 178.56 181.32 162.84 168.76 178.9" style="fill:#e1c800"/><polygon points="114.91 157.95 95.56 129.89 122.13 128.99 114.91 157.95" style="fill:#fff050"/><polygon points="168.2 105.93 169.54 145.75 192.16 178.56 152.33 179.91 119.52 202.53 118.18 162.7 95.56 129.89 135.39 128.55 168.2 105.93" style="fill:none;stroke:#0a0a0a;stroke-miterlimit:10;stroke-width:1.2px"/><polygon points="49.84 77.86 54.16 106.74 77.53 128.3 53.28 141.33 36.34 169.87 32.2 138.56 24.19 121.12 35.33 107.57 49.84 77.86" style="fill:#f5dc0a"/><path d="M33.11,145.49l-.86-6.55-8.06-17.82,11.14-13.55L49.84,77.85l2.92,19.5S33.73,145.49,33.11,145.49Z" style="fill:#fff050"/><polygon points="49.84 77.86 54.16 106.74 77.53 128.3 53.28 141.33 36.34 169.87 32.2 138.56 24.19 121.12 35.33 107.57 49.84 77.86" style="fill:none;stroke:#0a0a0a;stroke-miterlimit:10;stroke-width:1.302145099639896px"/></g></svg>