<svg xmlns="http://www.w3.org/2000/svg" viewBox="0 0 256 256"><g id="u63-status"><path d="M187.4,45.45,204.85,18c21.9,10.57,40.64,75.46-6.41,144.71Z" style="fill:#cb2027"/><path d="M187.4,45.45l12.28-19.32c6.28.62,19,3.79,24.39,21.16,8,25.82,4,73.65-25.63,115.41Z" style="fill:#a00f0f"/><path d="M187.4,45.45,204.85,18c21.9,10.57,40.64,75.46-6.41,144.71Z" style="fill:none;stroke:#0a0a0a;stroke-miterlimit:10;stroke-width:1.2px"/><path d="M81.64,253s79.05,9.35,132.51-73.7S187.4,45.45,187.4,45.45c-11.18-3-24.82-6.11-36.88-5.74-39,1.19-89.63,44.55-96.63,87.85C39.91,214.13,81.64,253,81.64,253Z" style="fill:#d2d2d2"/><path d="M187.4,45.45s80.21,50.8,26.75,133.86S81.64,253,81.64,253C159.5,217.69,265.31,143.44,187.4,45.45" style="fill:#bebebe"/><path d="M58.73,212.63C52.05,192.4,48,164.27,53.89,127.56c7-43.3,57.64-86.66,96.63-87.85C51,86.49,58.78,165.62,58.73,212.63Z" style="fill:#e6e6e6"/><path d="M109.71,179.75a20,20,0,0,0,9.85,12.45c7.62,4.15,22.48,9.23,37,1.89,20.28-10.24,50.36-62.33,43.1-71.76C188,107.13,101,146.61,109.71,179.75Z" style="fill:#f5dc0a"/><path d="M119.56,192.2a20,20,0,0,1-9.85-12.45c-5.21-19.83,26.17-42.56,43.65-50.1C145.68,135.1,104.56,153.5,119.56,192.2Z" style="fill:#fff050"/><path d="M199.68,122.33c7.26,9.43-22.82,61.52-43.1,71.76-14.54,7.34-29.4,2.26-37-1.89C160.07,196.57,190.59,151.11,199.68,122.33Z" style="fill:#e1c800"/><path d="M109.71,179.75a20,20,0,0,0,9.85,12.45c7.62,4.15,22.48,9.23,37,1.89,20.28-10.24,50.36-62.33,43.1-71.76C188,107.13,101,146.61,109.71,179.75Z" style="fill:none;stroke:#0a0a0a;stroke-miterlimit:10;stroke-width:1.2px"/><path d="M81.64,253s79.05,9.35,132.51-73.7S187.4,45.45,187.4,45.45c-11.18-3-24.82-6.11-36.88-5.74-39,1.19-89.63,44.55-96.63,87.85C39.91,214.13,81.64,253,81.64,253Z" style="fill:none;stroke:#0a0a0a;stroke-linecap:round;stroke-linejoin:round;stroke-width:1.2px"/><path d="M48.87,118.86A5.87,5.87,0,0,0,40,124.45v.11c2.48,22.81,9.53,41.44,21.17,41.94,14.66.64,22.62-8.47,26.07-21.73a9.21,9.21,0,0,0-5.83-10.89A198.33,198.33,0,0,1,48.87,118.86Z" style="fill:#f5dc0a"/><path d="M59.52,166.28l-1.93-.56c-9.5-3.81-15.34-20.82-17.55-41.16v-.11a5.87,5.87,0,0,1,8.84-5.59c4.49,2.63,12.39,6.57,17.85,9.1C51,137,55.7,158.2,59.52,166.28Z" style="fill:#fff050"/><path d="M93.08,163.28C96.43,67.2,153.48-6.24,204.85,18L187.4,45.45C169,45,136.21,41.12,105.16,126.27" style="fill:#d2d2d2"/><path d="M199.68,26.13,187.4,45.45C169,45,136.21,41.12,105.16,126.27,132.64,44.52,165.11,22.74,199.68,26.13Z" style="fill:#bebebe"/><path d="M93.08,163.28A242.92,242.92,0,0,1,100.2,111a199.13,199.13,0,0,1,19.31-49.13,138.37,138.37,0,0,1,15.13-21.72,95.05,95.05,0,0,1,19.72-17.67,66.47,66.47,0,0,1,11.81-6.13,52.2,52.2,0,0,1,12.91-3.28,45.76,45.76,0,0,1,13.32.35,50,50,0,0,1,12.69,4.06l.59.27-.35.55L187.86,45.74l-.17.26h-.3a91.49,91.49,0,0,0-15.54.38,46.93,46.93,0,0,0-14.74,4.46c-9.3,4.58-16.94,12-23.31,20.15a161.26,161.26,0,0,0-16.31,26.57,294.73,294.73,0,0,0-12.33,28.72,294.47,294.47,0,0,1,12-28.91,154,154,0,0,1,16.1-26.83,87.29,87.29,0,0,1,10.57-11.6,57.62,57.62,0,0,1,12.89-9A48.34,48.34,0,0,1,164,47a52.21,52.21,0,0,1,7.71-1.68,92.69,92.69,0,0,1,15.7-.42l-.47.25,17.43-27.47.24.82a49.28,49.28,0,0,0-12.41-3.93,45.91,45.91,0,0,0-13-.33,51.11,51.11,0,0,0-12.63,3.18,66.12,66.12,0,0,0-11.61,6,93.55,93.55,0,0,0-19.53,17.42,138.72,138.72,0,0,0-15.07,21.52,198.58,198.58,0,0,0-19.57,48.79A245.23,245.23,0,0,0,93.08,163.28Z" style="fill:#0a0a0a"/><polygon points="194.49 210.74 226.9 162.57 209.96 157.64 232.25 155.52 243.04 160.4 203.49 209.09 194.49 210.74" style="fill:#a0a0a0;stroke:#0a0a0a;stroke-linecap:round;stroke-linejoin:round;stroke-width:1.2px"/><polygon points="194.49 210.74 187.07 209 209.96 157.64 226.9 162.57 194.49 210.74" style="fill:#bebebe;stroke:#0a0a0a;stroke-linecap:round;stroke-linejoin:round;stroke-width:1.2px"/><line x1="226.9" y1="162.58" x2="243.04" y2="160.4" style="fill:none;stroke:#0a0a0a;stroke-linecap:round;stroke-miterlimit:10;stroke-width:1.2px"/><path d="M48.87,118.86c-4.14-2.41-8.88.83-8.84,5.59,0,0,0,.07,0,.11C39.45,144.9,49.57,166,61.21,166.5c14.66.64,22.62-8.47,26.07-21.73a9.21,9.21,0,0,0-5.83-10.89A198.33,198.33,0,0,1,48.87,118.86Z" style="fill:none;stroke:#0a0a0a;stroke-miterlimit:10;stroke-width:1.2px"/><path d="M22.59,98.76q0-6.41,3.86-10.16T37,84.84a10.7,10.7,0,0,1,7.63,2.67A9.81,9.81,0,0,1,47.48,95,13.3,13.3,0,0,1,43.61,105a13.75,13.75,0,0,1-10.06,3.79c-3.46,0-6.16-.89-8.08-2.67A9.48,9.48,0,0,1,22.59,98.76Zm6.61-26,1-5.48a29.7,29.7,0,0,1,5.17-12.45q3.82-5.2,12.13-10.9Q56.2,38,58.55,35a10.7,10.7,0,0,0,2.36-6.75q0-8.35-9.36-8.36A27.43,27.43,0,0,0,44.07,21,113,113,0,0,0,29.9,26.9L23.43,11.36Q39.6,2.57,54.72,2.57q12.45,0,19.69,6.15t7.24,17.19a26.38,26.38,0,0,1-2,10.52,28.72,28.72,0,0,1-5.8,8.64Q70,49,60.48,55.45a57.13,57.13,0,0,0-6.78,5.13A19.38,19.38,0,0,0,50,65.11a30.24,30.24,0,0,0-2.67,7.63Z" style="fill:#0a0a0a"/></g></svg>